<svg xmlns="http://www.w3.org/2000/svg" width="466.575" height="440.211" viewBox="0 0 466.575 440.211">
  <defs>
    <style>
      .cls-1 {
        fill: #c8e6eb;
      }

      .cls-2 {
        fill: #e4f2f6;
      }

      .cls-3 {
        fill: #87afb9;
      }

      .cls-4 {
        fill: #695a6e;
      }

      .cls-5 {
        fill: #fff;
      }

      .cls-10, .cls-12, .cls-14, .cls-23, .cls-6 {
        fill: none;
      }

      .cls-6 {
        stroke: #c8bec3;
        stroke-width: 1.293px;
      }

      .cls-12, .cls-14, .cls-23, .cls-6 {
        stroke-miterlimit: 10;
      }

      .cls-7 {
        fill: #ffaa50;
      }

      .cls-8 {
        fill: #41b4e6;
      }

      .cls-9 {
        fill: #ff8291;
      }

      .cls-10 {
        stroke: #fff;
        stroke-linejoin: round;
        stroke-width: 0.646px;
      }

      .cls-10, .cls-23 {
        stroke-linecap: round;
      }

      .cls-11 {
        fill: #b6ebc4;
      }

      .cls-12 {
        stroke: #8cc3a1;
        stroke-width: 2.636px;
      }

      .cls-13 {
        fill: #96cda3;
      }

      .cls-14 {
        stroke: #7aaf94;
        stroke-width: 1.318px;
      }

      .cls-15 {
        fill: #a5c8cd;
      }

      .cls-16 {
        fill: #55696e;
      }

      .cls-17 {
        fill: #ffaf82;
      }

      .cls-18 {
        fill: #b48255;
      }

      .cls-19 {
        fill: #373c41;
      }

      .cls-20 {
        fill: #a87348;
      }

      .cls-21 {
        fill: #ff9669;
      }

      .cls-22 {
        fill: #f9f8f7;
      }

      .cls-23 {
        stroke: #415050;
        stroke-width: 0.348px;
      }

      .cls-24 {
        fill: #783c28;
      }

      .cls-25 {
        fill: #ff640a;
      }

      .cls-26 {
        fill: #ffebb4;
      }

      .cls-27 {
        fill: #8c8091;
      }

      .cls-28 {
        fill: #c8a06e;
      }
    </style>
  </defs>
  <g id="Group_81" data-name="Group 81" transform="translate(-97.913 -15.063)">
    <ellipse id="Ellipse_14" data-name="Ellipse 14" class="cls-1" cx="73.782" cy="5.139" rx="73.782" ry="5.139" transform="translate(272.408 393.413)"/>
    <circle id="Ellipse_15" data-name="Ellipse 15" class="cls-2" cx="151.207" cy="151.207" r="151.207" transform="translate(136.812 228.902) rotate(-45)"/>
    <g id="Group_75" data-name="Group 75" transform="translate(281.667 181.496)">
      <path id="Path_765" data-name="Path 765" class="cls-3" d="M199.668,317.845l56.9-194.321,56.9,194.321h6.495l-63.4-216.5-63.4,216.5Z" transform="translate(-193.173 -101.344)"/>
    </g>
    <rect id="Rectangle_477" data-name="Rectangle 477" class="cls-4" width="235.834" height="173.03" rx="2.862" transform="translate(230.534 103.205)"/>
    <rect id="Rectangle_478" data-name="Rectangle 478" class="cls-5" width="229.074" height="159.788" rx="2.711" transform="translate(233.913 106.81)"/>
    <g id="Group_76" data-name="Group 76" transform="translate(263.05 128.223)">
      <rect id="Rectangle_479" data-name="Rectangle 479" class="cls-1" width="55.05" height="41.596" transform="translate(41.596 0) rotate(90)"/>
      <rect id="Rectangle_480" data-name="Rectangle 480" class="cls-1" width="55.05" height="41.596" transform="translate(106.199 0) rotate(90)"/>
      <rect id="Rectangle_481" data-name="Rectangle 481" class="cls-1" width="55.05" height="41.596" transform="translate(170.801 0) rotate(90)"/>
      <line id="Line_1" data-name="Line 1" class="cls-6" x2="26.769" transform="translate(7.414 44.696)"/>
      <line id="Line_2" data-name="Line 2" class="cls-6" x2="26.769" transform="translate(7.414 38.463)"/>
      <line id="Line_3" data-name="Line 3" class="cls-6" x2="26.769" transform="translate(7.414 32.23)"/>
      <line id="Line_4" data-name="Line 4" class="cls-6" x2="26.769" transform="translate(7.414 25.997)"/>
      <line id="Line_5" data-name="Line 5" class="cls-6" x2="16.796" transform="translate(7.414 17.27)"/>
      <line id="Line_6" data-name="Line 6" class="cls-6" x2="26.769" transform="translate(72.016 25.279)"/>
      <line id="Line_7" data-name="Line 7" class="cls-6" x2="26.769" transform="translate(72.016 19.046)"/>
      <line id="Line_8" data-name="Line 8" class="cls-6" x2="16.796" transform="translate(72.016 10.32)"/>
      <line id="Line_9" data-name="Line 9" class="cls-6" x2="26.769" transform="translate(137.422 26.526)"/>
      <line id="Line_10" data-name="Line 10" class="cls-6" x2="26.769" transform="translate(137.422 20.293)"/>
      <line id="Line_11" data-name="Line 11" class="cls-6" x2="16.796" transform="translate(137.422 11.566)"/>
      <rect id="Rectangle_482" data-name="Rectangle 482" class="cls-7" width="21.941" height="21.941" transform="translate(56.564 40.18)"/>
      <rect id="Rectangle_483" data-name="Rectangle 483" class="cls-8" width="21.941" height="21.941" transform="translate(87.815 44.08)"/>
      <rect id="Rectangle_484" data-name="Rectangle 484" class="cls-9" width="13.001" height="13.001" transform="translate(15.812 78.874)"/>
      <rect id="Rectangle_485" data-name="Rectangle 485" class="cls-9" width="13.001" height="13.001" transform="translate(15.812 101.746)"/>
      <rect id="Rectangle_486" data-name="Rectangle 486" class="cls-1" width="105.077" height="13.001" transform="translate(45.73 78.874)"/>
      <rect id="Rectangle_487" data-name="Rectangle 487" class="cls-1" width="105.077" height="13.001" transform="translate(45.73 101.746)"/>
      <path id="Path_766" data-name="Path 766" class="cls-10" d="M201.558,116.569l-5.466,5.465-3.267-3.267" transform="translate(-174.879 -33.927)"/>
      <path id="Path_767" data-name="Path 767" class="cls-10" d="M201.642,128.426l-5.466,5.465-3.267-3.267" transform="translate(-174.801 -22.913)"/>
    </g>
    <path id="Path_768" data-name="Path 768" class="cls-1" d="M232.565,243.1c0,2.627-28.379,4.757-63.386,4.757s-63.386-2.13-63.386-4.757,28.379-4.759,63.386-4.759S232.565,240.471,232.565,243.1Z" transform="translate(7.32 207.417)"/>
    <g id="Group_79" data-name="Group 79" transform="translate(97.913 273.533)">
      <path id="Path_769" data-name="Path 769" class="cls-3" d="M138.482,258.7h-21.7a4.415,4.415,0,0,1-4.35-3.663l-5.6-32.546h41.6l-5.6,32.546A4.413,4.413,0,0,1,138.482,258.7Z" transform="translate(-89.629 -80.839)"/>
      <g id="Group_78" data-name="Group 78" transform="translate(0 0)">
        <g id="Group_77" data-name="Group 77">
          <path id="Path_770" data-name="Path 770" class="cls-11" d="M156.536,194.914a41.082,41.082,0,0,1-9.925-18.925c-3.842-15.825-12.851-26.932-23.354-26.932-14,0-25.345,19.724-25.345,44.054s27.349,74.053,32.675,74.366c4.7.276,32.675-40.773,32.675-53.674C163.263,206.039,160.614,199.16,156.536,194.914Z" transform="translate(-97.913 -149.057)"/>
          <path id="Path_771" data-name="Path 771" class="cls-12" d="M118.076,164.836c4.24,19.112,6.379,47.9-1.055,87.982l-4.5,23.232" transform="translate(-84.346 -134.399)"/>
        </g>
        <path id="Path_772" data-name="Path 772" class="cls-13" d="M160.948,212.944c6.78-18.532,6.53-35.657-.559-38.251-6.3-2.305-15.879,7.648-22.692,22.9a11.824,11.824,0,0,1-5.972,6.082c-5.262,2.292-9.373,9.421-9.869,18.088-.621,10.827,8.5,23.973,8.5,23.973S154.245,231.261,160.948,212.944Z" transform="translate(-75.699 -125.55)"/>
        <path id="Path_773" data-name="Path 773" class="cls-14" d="M153.485,179.752c-6.543,13.312-17.862,37.806-24.768,61.025a159,159,0,0,0-4.961,21.417" transform="translate(-73.906 -120.542)"/>
      </g>
      <rect id="Rectangle_488" data-name="Rectangle 488" class="cls-15" width="46.077" height="11.559" rx="1.367" transform="translate(14.965 135.803)"/>
      <path id="Path_774" data-name="Path 774" class="cls-14" d="M110.518,194.615s12.523,28.174,11.078,47.923" transform="translate(-86.203 -106.735)"/>
    </g>
    <g id="Group_80" data-name="Group 80" transform="translate(161.992 123.464)">
      <path id="Path_775" data-name="Path 775" class="cls-16" d="M141.418,236.609l-.455,5.193a3.917,3.917,0,0,0,.882,2.843c2.132,2.587,8.349,3.875,10.382,2.458,2.353-1.642-4.876-6.7-4.876-6.7l-1.186-3.8Z" transform="translate(-122.014 82.344)"/>
      <path id="Path_776" data-name="Path 776" class="cls-16" d="M160.737,236.609v4.12a4.057,4.057,0,0,0,.831,2.469c1.952,2.556,8.464,3.383,10.362,1.757,2-1.719-6.992-8.347-6.992-8.347Z" transform="translate(-103.63 82.344)"/>
      <path id="Path_777" data-name="Path 777" class="cls-17" d="M155.5,182.852l10.1,135.765s1.69,1.931,4.2,0l15.891-124.675a64.945,64.945,0,0,0-3-26.853l-6.236-18.757L155.5,160.159Z" transform="translate(-108.492 0.337)"/>
      <path id="Path_778" data-name="Path 778" class="cls-17" d="M140.223,154.463,142.09,312.92s2.814,2.411,4.745,0l32.846-155.158Z" transform="translate(-122.687 6.034)"/>
      <path id="Path_779" data-name="Path 779" class="cls-18" d="M160.481,103.215s46.147,34.224,53.7,52.256c5.048,12.048-17.424,23.7-17.424,23.7l-39.49,2.076Z" transform="translate(-106.852 -41.574)"/>
      <path id="Path_780" data-name="Path 780" class="cls-19" d="M182.262,82.992c-2.367-6.038-16.639-10.09-30.831.158L143.06,93.258s-5.172,25.54,13.62,25.7c6.663.058,13.406-7.417,17.887-11.9C181.626,100.005,184.382,88.4,182.262,82.992Z" transform="translate(-120.657 -66.04)"/>
      <path id="Path_781" data-name="Path 781" class="cls-20" d="M165.948,103.405s-26.853-3.347-32.133,28.093c-3.445,20.52-5.733,62.333,7.249,91.352l10.947-2.008.637-32.686s37.376,19.066,42.607,3.7c7.344-21.572,13.24-49.283,1.4-75.124C187.612,97.007,165.948,103.405,165.948,103.405Z" transform="translate(-131.132 -42.318)"/>
      <path id="Path_782" data-name="Path 782" class="cls-18" d="M165.948,103.717s-26.853-3.347-32.133,28.093c-3.445,20.52-5.733,62.333,7.249,91.352l10.947-2.008.637-32.686s40.651,19.066,45.882,3.7c7.344-21.572,5.28-57.371-3.9-76.877C185.392,95.658,165.948,103.717,165.948,103.717Z" transform="translate(-131.132 -42.63)"/>
      <path id="Path_783" data-name="Path 783" class="cls-21" d="M151.072,92.137s2.674,11.948-4.136,21.07a20.655,20.655,0,0,0,5.918,4.485c5.42,2.639,12.656,3.856,11.242-2.992,0,0-3.3-7.616-2.077-20.192Z" transform="translate(-116.451 -51.865)"/>
      <path id="Path_784" data-name="Path 784" class="cls-17" d="M147.457,91.227s-1.225,10.746,3.2,17.067c2.3,3.283,7.365,3.887,9.948,3.081,3.939-1.231,5.752-10.411,6.217-12.928a101.27,101.27,0,0,0,.986-11.69,61.554,61.554,0,0,0-12.716.386,55.537,55.537,0,0,1-7.471.392S147.526,90.71,147.457,91.227Z" transform="translate(-116.112 -57.014)"/>
      <path id="Path_785" data-name="Path 785" class="cls-19" d="M147.166,91.56s1.572,5.557,1.993,5.662S151.884,86,151.884,86,146.641,85.374,147.166,91.56Z" transform="translate(-116.272 -57.581)"/>
      <path id="Path_786" data-name="Path 786" class="cls-22" d="M151.811,95.638a3.03,3.03,0,1,0,6.061,0Z" transform="translate(-111.922 -48.613)"/>
      <line id="Line_12" data-name="Line 12" class="cls-23" x1="4.503" y2="1.571" transform="translate(36.404 36.382)"/>
      <line id="Line_13" data-name="Line 13" class="cls-23" x2="3.818" y2="1.253" transform="translate(45.974 36.849)"/>
      <path id="Path_787" data-name="Path 787" class="cls-24" d="M152.676,92.894c0,.808-.338,1.462-.752,1.462s-.752-.654-.752-1.462.338-1.464.752-1.464S152.676,92.086,152.676,92.894Z" transform="translate(-112.517 -52.522)"/>
      <path id="Path_788" data-name="Path 788" class="cls-24" d="M156.47,92.894c0,.808-.338,1.462-.752,1.462s-.752-.654-.752-1.462.338-1.464.752-1.464S156.47,92.086,156.47,92.894Z" transform="translate(-108.992 -52.522)"/>
      <path id="Path_789" data-name="Path 789" class="cls-17" d="M150.626,92.828c.642,2.45.062,4.726-1.3,5.083s-2.984-1.341-3.626-3.792-.06-4.726,1.3-5.083S149.983,90.376,150.626,92.828Z" transform="translate(-117.841 -54.79)"/>
      <path id="Path_790" data-name="Path 790" class="cls-25" d="M154.061,91.615l1.508,5.106a1.307,1.307,0,0,1-1.41,1.508c-.718-.083-1.306-.394-1.119-1.508Z" transform="translate(-110.812 -52.35)"/>
      <path id="Path_791" data-name="Path 791" class="cls-19" d="M149.478,85.53S157.006,104.24,167.816,98s6.227-15.528-4.338-15.91S149.35,79.167,149.478,85.53Z" transform="translate(-114.093 -61.96)"/>
      <path id="Path_792" data-name="Path 792" class="cls-26" d="M181.911,250.033l5.515-55.957a68.465,68.465,0,0,0-3.167-28.317l-6.576-19.78-22.091,12.473,13.327,34.4,2.755,59.316C175.649,251.949,179.3,251.322,181.911,250.033Z" transform="translate(-108.41 -1.848)"/>
      <path id="Path_793" data-name="Path 793" class="cls-26" d="M184.436,255.913l2.458-97.993-39.851-15.972-2.037,14.365a110.734,110.734,0,0,0-7.718,40.618V250.74C151.863,254.852,167.644,256.438,184.436,255.913Z" transform="translate(-125.414 -5.593)"/>
      <path id="Path_794" data-name="Path 794" class="cls-21" d="M138.056,165.176l-.91,5.71a5.511,5.511,0,0,0,2.621,5.654c2.319,1.653,3.605,2.539,5.571,2.375s2.868-8.086,2.459-9.913c-.328-1.458-3.277-5-3.277-5Z" transform="translate(-125.619 14.896)"/>
      <path id="Path_795" data-name="Path 795" class="cls-18" d="M149.211,141.948l-.752,42.168-10.946,2.008-2.558-21.47Z" transform="translate(-127.58 -5.592)"/>
      <path id="Path_796" data-name="Path 796" class="cls-27" d="M165.99,173.573l-2.014-1.455,12.191-42.762,18.841-6.452,1.971,1.3Z" transform="translate(-100.621 -23.283)"/>
      <path id="Path_797" data-name="Path 797" class="cls-4" d="M183.815,166.387l-18.841,6.452,12.191-42.762,18.841-6.452Z" transform="translate(-99.695 -22.614)"/>
      <path id="Path_798" data-name="Path 798" class="cls-21" d="M168.5,138.591s-2.809,1.63-3.489,4.236c-.9,3.464-.226,5.876,1.925,6.682,3.625,1.36,8.684-.914,8.684-.914V145.03l-3.814-2.656S170.938,139.042,168.5,138.591Z" transform="translate(-100.027 -8.711)"/>
      <path id="Path_799" data-name="Path 799" class="cls-18" d="M168.906,146.1c-.658,3.308-.557,5.445,1.5,7.907,0,0,10.258-1.069,15.881-4.149h0l1-15.094Z" transform="translate(-96.377 -12.266)"/>
      <path id="Path_800" data-name="Path 800" class="cls-28" d="M154.195,152.308a2.354,2.354,0,1,1-2.353-2.353A2.353,2.353,0,0,1,154.195,152.308Z" transform="translate(-114.082 1.846)"/>
      <path id="Path_801" data-name="Path 801" class="cls-28" d="M154.195,159.274a2.354,2.354,0,1,1-2.353-2.355A2.354,2.354,0,0,1,154.195,159.274Z" transform="translate(-114.082 8.315)"/>
      <circle id="Ellipse_16" data-name="Ellipse 16" class="cls-28" cx="2.355" cy="2.355" r="2.355" transform="translate(35.404 180.013)"/>
      <path id="Path_802" data-name="Path 802" class="cls-19" d="M160.407,75.213c4.774,5.474,3.279,14.593-3.341,20.364s-15.856,6.015-20.63.54-3.277-14.593,3.341-20.366S155.633,69.738,160.407,75.213Z" transform="translate(-128.8 -71.26)"/>
      <path id="Path_803" data-name="Path 803" class="cls-20" d="M142.346,161.6V120.79l4.049,42.45Z" transform="translate(-120.715 -25.248)"/>
    </g>
  </g>
</svg>
