<svg xmlns="http://www.w3.org/2000/svg" width="593.5" height="593.5" viewBox="0 0 593.5 593.5">
  <defs>
    <style>
      .cls-1 {
        fill: #c8e6eb;
      }

      .cls-2 {
        fill: #e4f2f6;
      }

      .cls-3 {
        fill: #87afb9;
      }

      .cls-4 {
        fill: #b6ebc4;
      }

      .cls-26, .cls-30, .cls-31, .cls-5, .cls-7, .cls-8 {
        fill: none;
        stroke-miterlimit: 10;
      }

      .cls-5 {
        stroke: #8cc3a1;
        stroke-width: 3px;
      }

      .cls-6 {
        fill: #96cda3;
      }

      .cls-7, .cls-8 {
        stroke: #7aaf94;
      }

      .cls-7 {
        stroke-width: 1.656px;
      }

      .cls-8 {
        stroke-width: 2px;
      }

      .cls-9 {
        fill: #a5c8cd;
      }

      .cls-10 {
        fill: #50374b;
      }

      .cls-11 {
        fill: #fff;
      }

      .cls-12 {
        fill: #a5a0aa;
      }

      .cls-13 {
        fill: #695a6e;
      }

      .cls-14 {
        fill: #ff8291;
      }

      .cls-15 {
        fill: #41b4e6;
      }

      .cls-16 {
        fill: #faf58c;
      }

      .cls-17 {
        fill: #ff8c46;
      }

      .cls-18 {
        fill: #ffaf82;
      }

      .cls-19 {
        fill: #55c7a6;
      }

      .cls-20 {
        fill: #9b2d3c;
      }

      .cls-21 {
        fill: #dcbe82;
      }

      .cls-22 {
        fill: #c8a06e;
      }

      .cls-23 {
        fill: #51946f;
      }

      .cls-24 {
        fill: #ff9669;
      }

      .cls-25 {
        fill: #39ae96;
      }

      .cls-26 {
        stroke: #5a2d19;
        stroke-width: 0.646px;
      }

      .cls-26, .cls-31 {
        stroke-linecap: round;
      }

      .cls-27 {
        fill: #ff640a;
      }

      .cls-28 {
        fill: #5a2d19;
      }

      .cls-29 {
        fill: #f9f8f7;
      }

      .cls-30 {
        stroke: #965028;
        stroke-width: 0.323px;
      }

      .cls-31 {
        stroke: #50374b;
        stroke-width: 3.878px;
      }

      .cls-32 {
        fill: #ffdc8c;
      }

      .cls-33 {
        fill: #b9cdd2;
      }
    </style>
  </defs>
  <g id="Group_74" data-name="Group 74" transform="translate(-436.543 -13.085)">
    <path id="Path_716" data-name="Path 716" class="cls-1" d="M557.82,220.983c0,1.8-22.32,3.262-49.852,3.262s-49.852-1.459-49.852-3.262,22.32-3.262,49.852-3.262S557.82,219.183,557.82,220.983Z" transform="translate(32.515 308.444)"/>
    <circle id="Ellipse_13" data-name="Ellipse 13" class="cls-2" cx="209.834" cy="209.834" r="209.834" transform="translate(436.543 309.835) rotate(-45)"/>
    <g id="Group_65" data-name="Group 65" transform="translate(462.03 172.55)">
      <path id="Path_717" data-name="Path 717" class="cls-3" d="M480.149,246.9h28.207a5.737,5.737,0,0,0,5.654-4.764l7.281-42.3H467.214l7.281,42.3A5.736,5.736,0,0,0,480.149,246.9Z" transform="translate(-415.799 108.936)"/>
      <g id="Group_64" data-name="Group 64">
        <g id="Group_63" data-name="Group 63" transform="translate(10.807)">
          <path id="Path_718" data-name="Path 718" class="cls-4" d="M465.831,177.68C476.876,166.171,483.924,151.5,487.69,136c8.462-34.851,28.3-59.315,51.437-59.315,30.827,0,55.82,43.439,55.82,97.022s-60.235,163.1-71.964,163.784c-10.363.609-71.964-89.8-71.964-118.209C451.018,202.183,456.852,187.034,465.831,177.68Z" transform="translate(-451.018 -76.686)"/>
          <path id="Path_719" data-name="Path 719" class="cls-5" d="M483.9,103.422c-9.337,42.09-14.051,105.5,2.324,193.771l9.916,51.169" transform="translate(-414.263 -36.387)"/>
        </g>
        <path id="Path_720" data-name="Path 720" class="cls-6" d="M454.754,201.133c-11.075-30.27-10.666-58.242.91-62.477,10.29-3.766,25.938,12.491,37.065,37.406A19.318,19.318,0,0,0,502.483,186c8.6,3.743,15.31,15.387,16.122,29.543,1.013,17.684-13.88,39.154-13.88,39.154S465.7,231.05,454.754,201.133Z" transform="translate(-446.708 15.905)"/>
        <path id="Path_721" data-name="Path 721" class="cls-7" d="M453.609,144.889c10.689,21.741,29.175,61.747,40.455,99.672a259.611,259.611,0,0,1,8.1,34.982" transform="translate(-436.306 26.115)"/>
      </g>
      <path id="Path_722" data-name="Path 722" class="cls-8" d="M501.885,155.663s-27.58,62.055-24.4,105.547" transform="translate(-400.701 42.355)"/>
      <rect id="Rectangle_469" data-name="Rectangle 469" class="cls-9" width="59.892" height="15.025" rx="1.367" transform="translate(108.399 316.195) rotate(180)"/>
    </g>
    <path id="Path_723" data-name="Path 723" class="cls-10" d="M667.531,264.178H591.969V124.68h98.812Z" transform="translate(234.272 168.205)"/>
    <path id="Path_724" data-name="Path 724" class="cls-1" d="M738.992,230.526c0,3.415-42.313,6.183-94.51,6.183s-94.512-2.768-94.512-6.183,42.313-6.185,94.512-6.185S738.992,227.109,738.992,230.526Z" transform="translate(170.967 318.423)"/>
    <g id="Group_66" data-name="Group 66" transform="translate(567.688 366.225)">
      <path id="Path_725" data-name="Path 725" class="cls-9" d="M497.215,317.027l41.606-161.071-7.844-2.025-42.128,163.1Z" transform="translate(-488.848 -153.931)"/>
    </g>
    <g id="Group_67" data-name="Group 67" transform="translate(797.537 366.225)">
      <path id="Path_726" data-name="Path 726" class="cls-9" d="M630.495,317.027l-42.128-163.1-7.845,2.025,41.605,161.071Z" transform="translate(-580.521 -153.931)"/>
    </g>
    <rect id="Rectangle_470" data-name="Rectangle 470" class="cls-11" width="293.066" height="23.742" rx="1.954" transform="translate(563.492 352.78)"/>
    <g id="Group_68" data-name="Group 68" transform="translate(841.204 436.355)">
      <rect id="Rectangle_471" data-name="Rectangle 471" class="cls-12" width="8.652" height="97.399"/>
    </g>
    <g id="Group_69" data-name="Group 69" transform="translate(776.122 296.141)">
      <path id="Path_727" data-name="Path 727" class="cls-13" d="M682.291,274.847H580.633a8.654,8.654,0,0,1,0-17.308H682.291a5.884,5.884,0,0,0,5.757-4.573l27.986-120.295a8.653,8.653,0,0,1,16.856,3.921L704.9,256.89A23.119,23.119,0,0,1,682.291,274.847Z" transform="translate(-571.98 -125.979)"/>
    </g>
    <g id="Group_70" data-name="Group 70" transform="translate(803.928 529.427)">
      <path id="Path_728" data-name="Path 728" class="cls-13" d="M667.044,235.588h-8.653a7.925,7.925,0,0,0-7.916-7.913h-50.84a7.923,7.923,0,0,0-7.913,7.913H583.07a16.585,16.585,0,0,1,16.566-16.566h50.84A16.585,16.585,0,0,1,667.044,235.588Z" transform="translate(-583.07 -219.022)"/>
    </g>
    <path id="Path_729" data-name="Path 729" class="cls-11" d="M590.35,177.715h-75.83l-17.07-48.368a3.9,3.9,0,0,1,3.678-5.2h67.559a3.9,3.9,0,0,1,3.678,2.6Z" transform="translate(91.464 167.402)"/>
    <path id="Path_730" data-name="Path 730" class="cls-14" d="M558.789,132.161l-1.364-3.864H502.409l1.364,3.864Z" transform="translate(99.279 173.657)"/>
    <path id="Path_731" data-name="Path 731" class="cls-15" d="M560,135.595l-1.8-5.11H503.18l1.8,5.11Z" transform="translate(100.442 176.954)"/>
    <path id="Path_732" data-name="Path 732" class="cls-16" d="M559.8,135.039l-.66-1.87H504.128l.66,1.87Z" transform="translate(101.87 181)"/>
    <path id="Path_733" data-name="Path 733" class="cls-17" d="M504.619,134.561l6.04,17.115H532.9l-6.04-17.115Z" transform="translate(102.61 183.098)"/>
    <path id="Path_734" data-name="Path 734" class="cls-15" d="M514.151,134.561l6.04,17.115H550.7l-6.04-17.115Z" transform="translate(116.977 183.098)"/>
    <path id="Path_735" data-name="Path 735" class="cls-10" d="M568.007,129.009l15.472,43.847h-65.52l-15.472-43.847h65.52m.68-4.862H501.128a3.9,3.9,0,0,0-3.678,5.2l17.07,48.368h75.83L572.365,126.75a3.9,3.9,0,0,0-3.678-2.6Z" transform="translate(91.464 167.402)"/>
    <path id="Path_736" data-name="Path 736" class="cls-13" d="M603.807,153.673H514.573c-4.769,0-8.991-3.443-10.443-8.517h92.05c4.212,0,7.627,3.814,7.627,8.517Z" transform="translate(101.873 199.068)"/>
    <g id="Group_72" data-name="Group 72" transform="translate(703.154 187.021)">
      <path id="Path_737" data-name="Path 737" class="cls-18" d="M544.754,148.4l4.192-1.1a58.45,58.45,0,0,1,14.881-1.926h11.7v7.878l-30.12.1A2.515,2.515,0,0,1,544.754,148.4Z" transform="translate(-542.877 12.373)"/>
      <path id="Path_738" data-name="Path 738" class="cls-19" d="M668.312,117.345c13.587,28-44.494,78.3-52.252,78.285l-61.642-.14c-1.086-4.059-1.254-6.449-.15-10.292l54.192-13.434,28.911-45.908Z" transform="translate(-526.839 -29.872)"/>
      <path id="Path_739" data-name="Path 739" class="cls-20" d="M575.824,221.881l-2.058,10.8a4.9,4.9,0,0,1-1.853,2.537c-3.174,2.229-12,3.061-13.8.639-1.88-2.537,5.807-5.223,9.721-7.449l.935-4.726Z" transform="translate(-520.353 127.694)"/>
      <path id="Path_740" data-name="Path 740" class="cls-21" d="M705.592,160.094l-.13-1.324L571.269,170.843a20.582,20.582,0,0,0-18.471,23.8l22,128.694a13.268,13.268,0,0,0,8.891,0l4.676-114.42,68.735,2.66A46.91,46.91,0,0,0,705.592,160.094Z" transform="translate(-528.333 32.568)"/>
      <path id="Path_741" data-name="Path 741" class="cls-22" d="M627.239,182.379l22.977-10.418,55.245-13.191L571.269,170.843a20.582,20.582,0,0,0-18.471,23.8l4.724,29.022,28.744,39.54,2.1-54.288,32.627,1.264h0A17.853,17.853,0,0,1,627.239,182.379Z" transform="translate(-528.333 32.568)"/>
      <path id="Path_742" data-name="Path 742" class="cls-20" d="M590.356,204.643l3.821,4.927a4.7,4.7,0,0,1,.953,3.43c-.469,3.979-6.489,12.125-9.448,12.015-3.43-.128,1.166-12.717,1.166-12.717l-1.264-4.583Z" transform="translate(-480.274 101.711)"/>
      <path id="Path_743" data-name="Path 743" class="cls-21" d="M640.81,145.412c-27.653,6.216-64.971,20.625-87.472,33.939a18.012,18.012,0,0,0-3.3,28.47l95.024,91.443,7.168-5.305L599.57,202.242,646.4,185.8C644.538,171.824,641.216,156.627,640.81,145.412Z" transform="translate(-540.414 12.433)"/>
      <path id="Path_744" data-name="Path 744" class="cls-23" d="M588.343,238.819s-11.549-65.989-2.768-87.73c19.742-48.887,64.445-41.232,64.445-41.232s31.344,11.453,29.5,78.995l-8.9,52.192-11.245-3.382S615.053,253.863,588.343,238.819Z" transform="translate(-483.487 -41.815)"/>
      <path id="Path_745" data-name="Path 745" class="cls-24" d="M600.1,113.812l-3.167,19.8a3.632,3.632,0,0,0,2.863,4.155c5.463,1.058,16.844,1.489,28.856-8.758L618.365,98Z" transform="translate(-461.475 -59.032)"/>
      <path id="Path_746" data-name="Path 746" class="cls-19" d="M621.578,109.5s-35.3,32.274-6.935,156.918l23.065-5.925,17.466-109.135S650.643,131.87,621.578,109.5Z" transform="translate(-451.334 -41.704)"/>
      <path id="Path_747" data-name="Path 747" class="cls-18" d="M635.517,147.647s-16.478,1.439-18.223,2.67a43.467,43.467,0,0,0-4.646,4.6,1.05,1.05,0,0,0,.782,1.755l27.633-.113Z" transform="translate(-438.127 15.802)"/>
      <path id="Path_748" data-name="Path 748" class="cls-25" d="M638.328,178l4.463-27.894s-4.255-18.3-30.965-39.791C617.4,134.059,627.767,156.09,638.328,178Z" transform="translate(-438.952 -40.46)"/>
      <path id="Path_749" data-name="Path 749" class="cls-19" d="M610.777,109.5c28.8,11.8,55,26.357,76.911,45.452,7.767,6.988,7.584,13.251,1.793,18.413l-46.011,41.014-9.212-9.982L658.7,172.611a2.711,2.711,0,0,0-.933-4.077l-44.447-22.3Z" transform="translate(-440.533 -41.704)"/>
      <path id="Path_750" data-name="Path 750" class="cls-18" d="M594.788,101.236s.7,29.588,9.9,32.835c4.882,1.725,8.149.772,11.16-1.58,5.017-3.924,8-12.326,10.089-21.535,3.347-14.738-3.314-18.93-7.612-18.93S595.813,86.295,594.788,101.236Z" transform="translate(-464.633 -69.662)"/>
      <path id="Path_751" data-name="Path 751" class="cls-10" d="M591.262,87.373S581.13,113.008,598.476,119c0,0,4.453,3.069,19.188-8.6s12.895,13.815,12.895,13.815l1.728-1.111,3.222-6.18s1.652-2.994,2.726.539-4.844,9.879-4.844,9.879l.948,3.931.968,2.921s2.776-11.361,5.844-15.35,9.518-9.212,7.063-16.272-12.281-5.22-19.035-2.149-19.341-8.289-22.872-13.048S594.64,79.237,591.262,87.373Z" transform="translate(-474.381 -82.457)"/>
      <path id="Path_752" data-name="Path 752" class="cls-26" d="M601.411,96.724a11.736,11.736,0,0,0-6.075,2.2" transform="translate(-463.807 -60.953)"/>
      <path id="Path_753" data-name="Path 753" class="cls-27" d="M601.038,98.251l-3,9.039c-.233,1.858,1.916,2.176,2.828,2.176h0a1.476,1.476,0,0,0,1.462-1.672Z" transform="translate(-459.766 -58.652)"/>
      <path id="Path_754" data-name="Path 754" class="cls-26" d="M601.187,96.724s4.35.306,6.4,2.252" transform="translate(-454.988 -60.953)"/>
      <path id="Path_755" data-name="Path 755" class="cls-28" d="M598.846,100.575c0,1.161-.459,2.1-1.023,2.1s-1.023-.938-1.023-2.1.456-2.1,1.023-2.1S598.846,99.417,598.846,100.575Z" transform="translate(-461.601 -58.308)"/>
      <path id="Path_756" data-name="Path 756" class="cls-28" d="M603.174,100.575c0,1.161-.459,2.1-1.025,2.1s-1.023-.938-1.023-2.1.459-2.1,1.023-2.1S603.174,99.417,603.174,100.575Z" transform="translate(-455.08 -58.308)"/>
      <path id="Path_757" data-name="Path 757" class="cls-29" d="M597.616,103.639a4.477,4.477,0,1,0,8.954,0Z" transform="translate(-460.371 -50.531)"/>
      <g id="Group_71" data-name="Group 71" transform="translate(128.665 34.733)">
        <path id="Path_758" data-name="Path 758" class="cls-30" d="M610.669,102.884a5.424,5.424,0,1,1-5.426-5.426A5.426,5.426,0,0,1,610.669,102.884Z" transform="translate(-585.714 -94.58)"/>
        <path id="Path_759" data-name="Path 759" class="cls-30" d="M605.04,102.575a5.423,5.423,0,1,1-5.423-5.423A5.424,5.424,0,0,1,605.04,102.575Z" transform="translate(-594.194 -95.041)"/>
        <path id="Path_760" data-name="Path 760" class="cls-30" d="M598.262,100.011a2.969,2.969,0,0,1,4.2,0" transform="translate(-588.062 -92.041)"/>
        <path id="Path_761" data-name="Path 761" class="cls-30" d="M604.092,103.41l5.995-6.321a2.5,2.5,0,0,1,3.711.088l1.073,1.244" transform="translate(-579.275 -96.31)"/>
      </g>
      <path id="Path_762" data-name="Path 762" class="cls-18" d="M611.37,102.714c-1.926,2.75-2.392,5.1-3.969,4.6s-2.036-3.5-1.026-6.7,3.109-5.393,4.686-4.894S614.055,98.875,611.37,102.714Z" transform="translate(-447.976 -62.568)"/>
    </g>
    <path id="Path_763" data-name="Path 763" class="cls-31" d="M589.058,224.787l6.313-50.151a24.559,24.559,0,0,1,24.366-21.49h65.37" transform="translate(229.884 211.111)"/>
    <rect id="Rectangle_472" data-name="Rectangle 472" class="cls-25" width="23.381" height="20.119" transform="translate(855.285 302.005)"/>
    <rect id="Rectangle_473" data-name="Rectangle 473" class="cls-11" width="28.533" height="20.119" transform="translate(848.392 300.17)"/>
    <rect id="Rectangle_474" data-name="Rectangle 474" class="cls-32" width="6.351" height="8.77" transform="translate(858.52 294.926)"/>
    <g id="Group_73" data-name="Group 73" transform="translate(851.075 306.502)">
      <path id="Path_764" data-name="Path 764" class="cls-33" d="M609.418,133.882a3.772,3.772,0,1,1-3.773-3.771A3.774,3.774,0,0,1,609.418,133.882Z" transform="translate(-601.874 -130.111)"/>
      <rect id="Rectangle_475" data-name="Rectangle 475" class="cls-33" width="11.137" height="1.976" transform="translate(10.418 0.718)"/>
      <rect id="Rectangle_476" data-name="Rectangle 476" class="cls-33" width="11.137" height="1.976" transform="translate(10.418 4.131)"/>
    </g>
  </g>
</svg>
