<svg xmlns="http://www.w3.org/2000/svg" width="415.563" height="412.485" viewBox="0 0 415.563 412.485">
  <defs>
    <style>
      .cls-1, .cls-10, .cls-12, .cls-18, .cls-5 {
        fill: none;
        stroke-miterlimit: 10;
      }

      .cls-1 {
        stroke: #50555a;
      }

      .cls-1, .cls-18 {
        stroke-linecap: round;
      }

      .cls-1, .cls-5 {
        stroke-width: 2px;
      }

      .cls-2 {
        fill: #e4f2f6;
      }

      .cls-3 {
        fill: #50555a;
      }

      .cls-4 {
        fill: #a5c8cd;
      }

      .cls-5 {
        stroke: #b4d7dc;
      }

      .cls-6 {
        fill: #696e73;
      }

      .cls-7 {
        fill: #c8e6eb;
      }

      .cls-8 {
        fill: #87afb9;
      }

      .cls-9 {
        fill: #b6ebc4;
      }

      .cls-10 {
        stroke: #8cc3a1;
        stroke-width: 2.636px;
      }

      .cls-11 {
        fill: #96cda3;
      }

      .cls-12 {
        stroke: #7aaf94;
        stroke-width: 1.318px;
      }

      .cls-13 {
        fill: #ff640a;
      }

      .cls-14 {
        fill: #55696e;
      }

      .cls-15 {
        fill: #ff9669;
      }

      .cls-16 {
        fill: #39ae96;
      }

      .cls-17 {
        fill: #ffaf82;
      }

      .cls-18 {
        stroke: #a03c19;
        stroke-width: 0.705px;
      }

      .cls-19 {
        fill: #523528;
      }

      .cls-20 {
        fill: #55c7a6;
      }

      .cls-21 {
        fill: #fff;
      }

      .cls-22 {
        fill: #823264;
      }

      .cls-23 {
        fill: #eb5a7d;
      }

      .cls-24 {
        fill: #ffe678;
      }
    </style>
  </defs>
  <g id="Group_106" data-name="Group 106" transform="translate(-447.183 -231.94)">
    <path id="Path_856" data-name="Path 856" class="cls-1" d="M575.844,384.476h18.994l5.8,6.043" transform="translate(119.91 142.161)"/>
    <circle id="Ellipse_21" data-name="Ellipse 21" class="cls-2" cx="145.835" cy="145.835" r="145.835" transform="translate(447.183 438.183) rotate(-45)"/>
    <path id="Path_857" data-name="Path 857" class="cls-3" d="M623.148,385.075H560.579a7.564,7.564,0,0,1-7.564-7.564h77.7A7.564,7.564,0,0,1,623.148,385.075Z" transform="translate(98.634 135.67)"/>
    <rect id="Rectangle_496" data-name="Rectangle 496" class="cls-4" width="6.472" height="75.325" transform="translate(692.41 510.335)"/>
    <path id="Path_858" data-name="Path 858" class="cls-3" d="M585.213,406.907H573.649l-1.932-26.044h15.429Z" transform="translate(116.064 138.795)"/>
    <path id="Path_859" data-name="Path 859" class="cls-5" d="M558.289,429.783,592.2,414.269l30.838,15.514" transform="translate(103.549 169.927)"/>
    <path id="Rectangle_497" data-name="Rectangle 497" class="cls-6" d="M0,0H71a5.716,5.716,0,0,1,5.716,5.716v95.1a0,0,0,0,1,0,0H0a0,0,0,0,1,0,0V0A0,0,0,0,1,0,0Z" transform="translate(657.395 414.344)"/>
    <path id="Path_860" data-name="Path 860" class="cls-7" d="M723.528,415.505c0,2.631-28.423,4.766-63.485,4.766s-63.483-2.135-63.483-4.766,28.421-4.766,63.483-4.766S723.528,412.874,723.528,415.505Z" transform="translate(139.217 166.638)"/>
    <ellipse id="Ellipse_22" data-name="Ellipse 22" class="cls-7" cx="73.898" cy="5.147" rx="73.898" ry="5.147" transform="translate(606.201 601.546)"/>
    <g id="Group_95" data-name="Group 95" transform="translate(549.897 481.019)">
      <path id="Path_861" data-name="Path 861" class="cls-4" d="M506.8,486.538l32.059-124.113-6.045-1.561L500.348,486.538Z" transform="translate(-500.348 -360.864)"/>
    </g>
    <g id="Group_96" data-name="Group 96" transform="translate(727.007 481.019)">
      <path id="Path_862" data-name="Path 862" class="cls-4" d="M630.528,486.538,598.066,360.864l-6.045,1.561,32.058,124.113Z" transform="translate(-592.021 -360.864)"/>
    </g>
    <g id="Group_99" data-name="Group 99" transform="translate(765.71 403.829)">
      <path id="Path_863" data-name="Path 863" class="cls-8" d="M652.672,430.609H630.939a4.422,4.422,0,0,1-4.358-3.669l-5.611-32.6h41.669l-5.611,32.6A4.42,4.42,0,0,1,652.672,430.609Z" transform="translate(-603.742 -252.47)"/>
      <g id="Group_98" data-name="Group 98">
        <g id="Group_97" data-name="Group 97">
          <path id="Path_864" data-name="Path 864" class="cls-9" d="M670.768,366.839a41.147,41.147,0,0,1-9.94-18.955c-3.849-15.85-12.871-26.974-23.391-26.974-14.021,0-25.385,19.755-25.385,44.123s27.392,74.169,32.726,74.482c4.712.276,32.726-40.836,32.726-53.758C677.505,377.981,674.852,371.091,670.768,366.839Z" transform="translate(-612.053 -320.91)"/>
          <path id="Path_865" data-name="Path 865" class="cls-10" d="M632.225,336.689c4.246,19.14,6.389,47.977-1.057,88.12l-4.511,23.269" transform="translate(-598.442 -306.204)"/>
        </g>
        <path id="Path_866" data-name="Path 866" class="cls-11" d="M675.149,384.857c6.791-18.561,6.54-35.713-.56-38.311-6.31-2.309-15.9,7.66-22.728,22.939a11.837,11.837,0,0,1-5.981,6.091c-5.271,2.3-9.388,9.436-9.884,18.116-.622,10.844,8.51,24.011,8.51,24.011S668.436,403.2,675.149,384.857Z" transform="translate(-589.767 -297.327)"/>
        <path id="Path_867" data-name="Path 867" class="cls-12" d="M667.672,351.605c-6.553,13.333-17.89,37.863-24.807,61.12a159.248,159.248,0,0,0-4.969,21.451" transform="translate(-587.968 -292.303)"/>
      </g>
      <rect id="Rectangle_498" data-name="Rectangle 498" class="cls-4" width="46.149" height="11.578" rx="1.367" transform="translate(14.988 136.015)"/>
      <path id="Path_868" data-name="Path 868" class="cls-12" d="M624.658,366.468s12.542,28.221,11.1,48" transform="translate(-600.305 -278.451)"/>
    </g>
    <g id="Group_103" data-name="Group 103" transform="translate(616.28 338.813)">
      <path id="Path_869" data-name="Path 869" class="cls-13" d="M585.942,295.4a21.027,21.027,0,0,0-17.68,16.254c-.023.108-.044.216-.068.325a17.625,17.625,0,0,1-11.01,12.883,16.288,16.288,0,0,0-10.353,14.818l0,.11a13.8,13.8,0,0,1-6.383,11.041c-3.734,2.529-5.665,6.965-5.688,12.027-.029,6.385-.043,12.438-.05,16.9a2.326,2.326,0,0,0,4.136,1.466c2.655-3.281,6.188-6.694,9.37-6.652,6.337.083,11.142-4.942,12.224-10.57a11.08,11.08,0,0,1,7.7-8.362,16.574,16.574,0,0,0,9.886-8.773,17.621,17.621,0,0,1,13.742-9.872c.089-.012.178-.025.267-.039a21,21,0,0,0-6.093-41.559Z" transform="translate(-534.708 -279.841)"/>
      <g id="Group_102" data-name="Group 102" transform="translate(15.458)">
        <g id="Group_100" data-name="Group 100" transform="translate(14.847 166.696)">
          <rect id="Rectangle_499" data-name="Rectangle 499" class="cls-6" width="61.491" height="9.652"/>
        </g>
        <g id="Group_101" data-name="Group 101">
          <path id="Path_870" data-name="Path 870" class="cls-14" d="M570.128,418.261v4.177a4.127,4.127,0,0,1-.84,2.5c-1.978,2.589-3.163,10.216-5.214,8.731-3.016-2.179,1.8-15.411,1.8-15.411Z" transform="translate(-523.724 -165.165)"/>
          <path id="Path_871" data-name="Path 871" class="cls-15" d="M591.153,354.583l-15.67,132.78s-1.573,2.063-4.256,0L557.708,376.751c-.955-9.687.006-18.611,1.93-32.635Z" transform="translate(-529.078 -234.267)"/>
          <path id="Path_872" data-name="Path 872" class="cls-14" d="M586.926,407.372l2.471,3.74c.618.937,6.793,9.743,9.231,8.6,1.7-.8-1.53-7.813-3.454-11.638a10.446,10.446,0,0,0-3.472-3.955l-1.389-.943Z" transform="translate(-501.5 -179.228)"/>
          <path id="Path_873" data-name="Path 873" class="cls-13" d="M584.767,290.541c-5.522,2.172-8,3.354-8,3.354-17.966-12.772-22.158-4-22.933.645s-1.032,15.74,8.773,19.695c5.255,2.121,9.385-1.32,12.1-4.967-.373,4.867.551,11.206,7,13.269C601.8,328.972,598.751,285.04,584.767,290.541Z" transform="translate(-532.656 -287.258)"/>
          <path id="Path_874" data-name="Path 874" class="cls-16" d="M588.351,314.471s12.013-.5,20.769,8.852c8.485,9.061,3.184,33.98,3.818,63.951,0,0,13.588,18.319.427,47.734l-10.421-.587,3.613-13.706s-13.723,4.272-52.77-6.727c-3.98-12.268,2.55-20.091,1.094-25.682-3.866-14.851-10.553-40.589,3.17-62.26C569.816,307.468,588.351,314.471,588.351,314.471Z" transform="translate(-536.095 -263.102)"/>
          <path id="Path_875" data-name="Path 875" class="cls-15" d="M582.774,324.632a47.894,47.894,0,0,0,.84-9.9,23.852,23.852,0,0,0-3.785-.269,26.154,26.154,0,0,0-19.764,1.48,43.718,43.718,0,0,0-.991,4.606,11.939,11.939,0,0,0,.021,3.582c1.731,11.132,17.28,13.775,22.5,3.792A12.511,12.511,0,0,0,582.774,324.632Z" transform="translate(-527.573 -263.098)"/>
          <path id="Path_876" data-name="Path 876" class="cls-15" d="M574.052,303.262s-2.709,12.112,4.194,21.358a20.937,20.937,0,0,1-6,4.546c-5.493,2.674-12.338,3.686-10.9-3.254,0,0,3.626-7.214,2.384-19.961Z" transform="translate(-525.524 -272.342)"/>
          <path id="Path_877" data-name="Path 877" class="cls-17" d="M580.987,302.657a17.42,17.42,0,0,1-4.061,17.788,11.672,11.672,0,0,1-8.383,3.711c-4.3-.311-7.027-6.789-7.558-9.482-.833-4.219-3.609-16.857-3.609-16.857a94.5,94.5,0,0,1,15.773.392c3.483.483,6.47-1.772,7.57,2.96C580.826,301.637,580.915,302.132,580.987,302.657Z" transform="translate(-529.04 -277.57)"/>
          <line id="Line_18" data-name="Line 18" class="cls-18" x2="4.746" y2="0.92" transform="translate(42.701 26.623)"/>
          <line id="Line_19" data-name="Line 19" class="cls-18" x1="4.042" y2="0.509" transform="translate(33.065 27.083)"/>
          <path id="Path_878" data-name="Path 878" class="cls-19" d="M565.645,303.6c0,.819.342,1.484.761,1.484s.763-.665.763-1.484-.342-1.484-.763-1.484S565.645,302.786,565.645,303.6Z" transform="translate(-521.333 -273.406)"/>
          <path id="Path_879" data-name="Path 879" class="cls-19" d="M560.78,303.6c0,.819.34,1.484.761,1.484s.763-.665.763-1.484-.342-1.484-.763-1.484S560.78,302.786,560.78,303.6Z" transform="translate(-525.867 -273.406)"/>
          <path id="Path_880" data-name="Path 880" class="cls-17" d="M569.1,303.645c-.651,2.483-.062,4.789,1.316,5.151s3.026-1.358,3.677-3.843.062-4.791-1.318-5.153S569.747,301.16,569.1,303.645Z" transform="translate(-518.364 -275.614)"/>
          <path id="Path_881" data-name="Path 881" class="cls-13" d="M563.967,302.431l-1.385,5.495a1.215,1.215,0,0,0,1.625,1.343h0a1,1,0,0,0,.979-1.215Z" transform="translate(-524.197 -273.117)"/>
          <path id="Path_882" data-name="Path 882" class="cls-13" d="M579.3,296.581s-7.245,18.155-18.2,11.833-6.7-14.928,4.009-15.315S579.426,290.131,579.3,296.581Z" transform="translate(-531.544 -282.592)"/>
          <path id="Path_883" data-name="Path 883" class="cls-15" d="M585.777,377.218l-.933,4.289,1.318,3.85a2.164,2.164,0,0,1-2.013,2.863l-4.845.079a1.864,1.864,0,0,1-1.781-2.506l1.9-5.191,1-4.366Z" transform="translate(-510.372 -204.331)"/>
          <path id="Path_884" data-name="Path 884" class="cls-16" d="M591.475,348.181s24.471,50.336-4.921,72.206l-21.41-57.836Z" transform="translate(-521.8 -230.478)"/>
          <path id="Path_885" data-name="Path 885" class="cls-17" d="M558.722,395.337c6.507-1.969,13.252-3.234,17.056-1.7,13.027,5.257,42.753,57.343,42.753,57.343s3.373-.9,3.387-4.2c0,0-13.437-61.391-29.061-79.689-2.958-3.462-8.113-7.183-13.916-10.709l-25,1.745S549.888,398.007,558.722,395.337Z" transform="translate(-533.105 -222.835)"/>
          <path id="Path_886" data-name="Path 886" class="cls-16" d="M581.616,359.857s-18.957-.448-11.665,54.277c0,0-19.807-13.025-19.807-37.146,0-14.695,4.579-24.335,4.579-24.335Z" transform="translate(-535.78 -226.311)"/>
          <path id="Path_887" data-name="Path 887" class="cls-15" d="M566.577,355.882s9.93,1.658,12.917,4.337c1.729,1.551,3.454,4.836,4.6,7.33a1.185,1.185,0,0,1-1.66,1.524l-9.89-5.512-9.38-3.53Z" transform="translate(-523.644 -223.301)"/>
          <path id="Path_888" data-name="Path 888" class="cls-20" d="M585.717,345.194l2.716,30.929-26.451,8.914L569.291,391s25.365,1.484,31.455-4.5c5.887-5.78,7.763-30.775,7.763-30.775,1.242-20.927-6.681-37.575-15.8-38.456C583.373,316.373,583.935,332.07,585.717,345.194Z" transform="translate(-524.747 -259.319)"/>
          <path id="Path_889" data-name="Path 889" class="cls-20" d="M567.709,317.72s-22.486,24.455-24.982,58.85c-.958,13.207,38.358,20.5,38.358,20.5l4.969-6.13-21.308-16.076a92.708,92.708,0,0,1-2.125-19.589C562.62,340.073,567.709,317.72,567.709,317.72Z" transform="translate(-542.709 -258.868)"/>
          <path id="Path_890" data-name="Path 890" class="cls-21" d="M561.915,307.51a2.588,2.588,0,0,0,5.176,0Z" transform="translate(-524.81 -268.383)"/>
        </g>
      </g>
    </g>
    <rect id="Rectangle_500" data-name="Rectangle 500" class="cls-21" width="225.822" height="18.295" rx="1.954" transform="translate(546.664 470.659)"/>
    <path id="Path_891" data-name="Path 891" class="cls-8" d="M614.583,377.565H541.958l-10.087-39.8a4.769,4.769,0,0,1,4.621-5.939h62.79a4.77,4.77,0,0,1,4.621,3.6Z" transform="translate(78.79 93.095)"/>
    <circle id="Ellipse_23" data-name="Ellipse 23" class="cls-6" cx="6.04" cy="6.04" r="6.04" transform="translate(655.798 593.67)"/>
    <path id="Path_892" data-name="Path 892" class="cls-6" d="M600.76,425.213a6.04,6.04,0,1,1-6.039-6.041A6.04,6.04,0,0,1,600.76,425.213Z" transform="translate(131.873 174.497)"/>
    <line id="Line_20" data-name="Line 20" class="cls-5" y2="19.378" transform="translate(695.646 584.196)"/>
    <rect id="Rectangle_501" data-name="Rectangle 501" class="cls-6" width="8.036" height="12.08" rx="1.148" transform="translate(691.736 597.534)"/>
    <g id="Group_105" data-name="Group 105" transform="translate(460.435 362.071)">
      <path id="Path_893" data-name="Path 893" class="cls-17" d="M487.285,484.1s-5.829-78.794,5.512-99.074c6.8-12.16,24.735-10.535,20.294,12.751L493.085,481.4Z" transform="translate(-424.455 -226.356)"/>
      <path id="Path_894" data-name="Path 894" class="cls-7" d="M568.118,442.434c0,2.842-25.537,5.147-57.038,5.147s-57.038-2.3-57.038-5.147,25.537-5.147,57.038-5.147S568.118,439.59,568.118,442.434Z" transform="translate(-454.042 -170.69)"/>
      <path id="Path_895" data-name="Path 895" class="cls-22" d="M486.71,434.5s4.762,11.619,9.88,11.619c4.859,0-4.08-14.32-4.08-14.32S484.8,428.208,486.71,434.5Z" transform="translate(-423.88 -176.754)"/>
      <path id="Path_896" data-name="Path 896" class="cls-22" d="M499.317,429.616l-1.472,5.583a4.31,4.31,0,0,0,.84,3.85c2.877,3.493,9.434,10.85,12.2,8.992,3.456-2.326-6.041-13.91-6.041-13.91Z" transform="translate(-413.353 -177.839)"/>
      <path id="Path_897" data-name="Path 897" class="cls-17" d="M483.565,411.832l44.641-.983c3.58,4.666-16.229,74.633-16.229,74.633,1.988,1.681,4,2.755,6.039,2.686,0,0,51.348-80.208,40.523-97.617-11.256-18.1-74.975-18.912-74.975-18.912Z" transform="translate(-426.527 -231.875)"/>
      <path id="Path_898" data-name="Path 898" class="cls-23" d="M511.685,410.947H523.8l4.4-.1c.016.023.025.072.041.1,0,0,33.555-16.936,31.024-21.007-11.258-18.107-75.707-18.3-75.707-18.3v40.195l25.966-.572A7.913,7.913,0,0,1,511.685,410.947Z" transform="translate(-426.527 -231.875)"/>
      <path id="Path_899" data-name="Path 899" class="cls-23" d="M512.373,336.369s29.285,19.326,33.311,46.111-11.238,56.435-11.238,56.435H486.017s-18.373-16.105-16.325-49.784S512.373,336.369,512.373,336.369Z" transform="translate(-439.605 -264.744)"/>
      <g id="Group_104" data-name="Group 104" transform="translate(19.215 80.138)">
        <path id="Path_900" data-name="Path 900" class="cls-1" d="M495.8,398.9H476.81l-5.8,6.044" transform="translate(-457.446 -286.606)"/>
        <rect id="Rectangle_502" data-name="Rectangle 502" class="cls-4" width="6.472" height="75.325" transform="translate(41.703 171.316) rotate(180)"/>
        <path id="Path_901" data-name="Path 901" class="cls-3" d="M481.916,421.33H493.48l1.932-26.044H479.984Z" transform="translate(-449.08 -289.972)"/>
        <path id="Path_902" data-name="Path 902" class="cls-5" d="M532.634,444.205l-33.916-15.514-30.838,15.514" transform="translate(-460.36 -258.839)"/>
        <path id="Path_903" data-name="Path 903" class="cls-6" d="M498.271,439.634a6.04,6.04,0,1,0,6.039-6.039A6.041,6.041,0,0,0,498.271,439.634Z" transform="translate(-432.036 -254.269)"/>
        <path id="Path_904" data-name="Path 904" class="cls-6" d="M464.754,439.634A6.04,6.04,0,1,0,470.8,433.6,6.041,6.041,0,0,0,464.754,439.634Z" transform="translate(-463.274 -254.269)"/>
        <line id="Line_21" data-name="Line 21" class="cls-5" y2="19.378" transform="translate(38.468 169.852)"/>
        <rect id="Rectangle_503" data-name="Rectangle 503" class="cls-6" width="8.036" height="12.08" rx="1.148" transform="translate(42.377 195.27) rotate(180)"/>
        <path id="Path_905" data-name="Path 905" class="cls-3" d="M466.455,391.933a7.565,7.565,0,0,0,7.564,7.566h62.569a7.563,7.563,0,0,0,7.564-7.566h-77.7Z" transform="translate(-461.688 -293.098)"/>
        <path id="Rectangle_504" data-name="Rectangle 504" class="cls-6" d="M0,0H71a5.716,5.716,0,0,1,5.716,5.716V95.1A5.716,5.716,0,0,1,71,100.818H5.716A5.716,5.716,0,0,1,0,95.1V0A0,0,0,0,1,0,0Z" transform="translate(76.718 100.818) rotate(180)"/>
      </g>
      <path id="Path_906" data-name="Path 906" class="cls-17" d="M492.652,350.969a13.5,13.5,0,0,0,8.555,13.157c12.558,4.923,34.959,13.246,44.832,14.047,10.253.831,40.651-6.356,40.651-6.356v-6.808s-29-1.582-38.08-4.482c-8.07-2.575-22.709-11.874-34.841-20.16a13.516,13.516,0,0,0-21.117,10.6Z" transform="translate(-418.07 -263.228)"/>
      <path id="Path_907" data-name="Path 907" class="cls-24" d="M577.12,366.947a30.31,30.31,0,0,0-18.6-27.958A17.364,17.364,0,0,1,547.814,323h0c0-12.631-9.882-23.468-22.512-23.7a22.941,22.941,0,0,0-23.371,22.937h0a48.327,48.327,0,0,1-23.342,41.422,45.692,45.692,0,1,0,65.33,57.622c4.7-10.639,12.046-19.882,20.69-27.666C571.158,387.715,577.12,379.027,577.12,366.947Z" transform="translate(-451.811 -299.296)"/>
      <path id="Path_908" data-name="Path 908" class="cls-17" d="M541.32,352.372l8.4-.761a13.755,13.755,0,0,1,8.7,2.146s9.4,3.136,8.393,5.423c-.75,1.7-25.5,0-25.5,0Z" transform="translate(-372.7 -250.591)"/>
    </g>
  </g>
</svg>
